<?xml version="1.0" encoding="utf-8"?>
<!-- Generator: Adobe Illustrator 18.1.1, SVG Export Plug-In . SVG Version: 6.00 Build 0)  -->
<!DOCTYPE svg PUBLIC "-//W3C//DTD SVG 1.1//EN" "http://www.w3.org/Graphics/SVG/1.1/DTD/svg11.dtd">
<svg version="1.1" id="Layer_1" xmlns="http://www.w3.org/2000/svg" xmlns:xlink="http://www.w3.org/1999/xlink" x="0px" y="0px"
	 viewBox="75.3 114.8 174.3 69.8" enable-background="new 75.3 114.8 174.3 69.8" xml:space="preserve">
<path fill="#E93425" d="M128,141c0,0.3,0,0.7-0.1,1.1c-0.3,2.8-1.2,5.4-2.4,7.6c4.9,4.6-1.2,13.6-5.2,17.4
	c3.8-2.3,8.5-7.6,10.4-13.2C132.7,148,131.4,142.2,128,141"/>
<path fill="#E93425" d="M97.5,165.4c-9.5-3.5-10-13-3.9-20.2l0.1-4.2c-9.3,2.3-15.9,9.7-16.6,18.4c-0.7,8.7,6.6,14.6,16,14.5
	c0-0.3,0.1-0.6,0.2-0.9C93.7,170.5,95.3,167.9,97.5,165.4"/>
<path fill="#E93425" d="M115.1,167.9c-5.8,6.4-15.2,12-22.1,6c-0.8,5.1,4.5,7.1,11.4,4.9c6-1.9,12.4-7,15.9-11.7
	c-0.2,0.1-0.4,0.2-0.7,0.3C117.9,168.2,116.3,168.3,115.1,167.9"/>
<polygon fill="#3C3C3D" points="106,117.1 87.5,129.7 109.7,130 128,117.9 "/>
<path fill="#3C3C3D" d="M144.8,176.3c-0.1-1-0.7-1.3-1.6-1.3c-0.9,0-1.5,0.4-1.5,1.1c0,0.7,0.8,0.9,1.8,1.1c1.1,0.2,2.5,0.6,2.5,2
	c0,1.5-1.3,2-2.6,2c-1.6,0-2.7-0.7-2.7-2.3h0.8c0,1.2,0.9,1.6,2,1.6c0.8,0,1.6-0.3,1.6-1.2c0-0.9-0.8-1-1.9-1.3
	c-1.1-0.2-2.3-0.4-2.3-1.8c0-1.4,1.2-1.9,2.4-1.9c1.4,0,2.4,0.7,2.4,2.1L144.8,176.3L144.8,176.3z"/>
<path fill="#3C3C3D" d="M151.3,178.6c0,1.6-0.8,2.6-2.3,2.6c-1.5,0-2.3-0.9-2.3-2.5c0-1.6,0.9-2.6,2.4-2.6
	C150.5,176.1,151.3,177,151.3,178.6 M147.5,178.6c0,1.2,0.6,1.9,1.5,1.9c0.9,0,1.5-0.7,1.5-1.9c0-1.1-0.6-1.9-1.5-1.9
	C148.1,176.7,147.5,177.5,147.5,178.6"/>
<path fill="#3C3C3D" d="M154.5,175.1c-0.1,0-0.3,0-0.4,0c-0.5,0-0.6,0.1-0.6,0.6v0.5h0.9v0.7h-0.9v4.1h-0.8v-4.1h-0.8v-0.7h0.8v-0.6
	c0-0.9,0.5-1.2,1.3-1.2c0.2,0,0.3,0,0.5,0L154.5,175.1L154.5,175.1z"/>
<path fill="#3C3C3D" d="M157.3,176.9h-1v2.8c0,0.4,0,0.7,0.5,0.7c0.2,0,0.3,0,0.4,0v0.7c-0.3,0-0.4,0-0.6,0c-1.2,0-1.1-0.6-1.1-1.6
	v-2.5h-0.8v-0.7h0.8v-1.4h0.8v1.4h1L157.3,176.9L157.3,176.9z"/>
<polygon fill="#3C3C3D" points="158.7,176.2 159.8,180.2 160.7,176.2 161.6,176.2 162.6,180.2 163.7,176.2 164.5,176.2 163,181 
	162.1,181 161.2,177.2 160.2,181 159.3,181 157.8,176.2 "/>
<path fill="#3C3C3D" d="M169.6,181c-0.2,0.1-0.4,0.1-0.5,0.1c-0.4,0-0.7-0.3-0.7-0.7c-0.5,0.5-1,0.8-1.7,0.8c-0.9,0-1.5-0.5-1.5-1.4
	c0-0.9,0.6-1.4,1.7-1.5c1.1-0.1,1.5-0.1,1.5-0.8c0-0.5-0.4-0.8-1.1-0.8c-0.7,0-1.1,0.3-1.2,1h-0.8c0-1,0.8-1.6,2-1.6
	c0.6,0,1.2,0.2,1.5,0.5c0.3,0.3,0.3,0.8,0.3,1.2c0,0.7,0,1.4,0,2.1c0,0.4,0.1,0.5,0.3,0.5c0.1,0,0.1,0,0.2,0L169.6,181L169.6,181z
	 M167.3,178.8c-0.6,0.1-1.4,0.1-1.4,0.9c0,0.5,0.4,0.8,1,0.8c0.7,0,1.5-0.5,1.5-1.1v-0.9C168,178.7,167.6,178.8,167.3,178.8"/>
<path fill="#3C3C3D" d="M173,176.9c-0.1,0-0.1,0-0.2,0c-1.3,0-1.5,1-1.5,2.1v2h-0.8v-4.8h0.8v1c0.3-0.8,0.9-1.1,1.8-1.1V176.9z"/>
<path fill="#3C3C3D" d="M175.7,181.2c-1.4,0-2.3-0.9-2.3-2.5c0-1.6,0.9-2.6,2.2-2.6c1.6,0,2.2,1.3,2.2,2.6v0.1h-3.6l0,0.1
	c0,1,0.6,1.6,1.5,1.6c0.7,0,1.1-0.3,1.3-1h0.8C177.5,180.6,176.8,181.2,175.7,181.2 M175.6,176.7c-0.8,0-1.3,0.6-1.4,1.5h2.8
	C176.9,177.3,176.4,176.7,175.6,176.7"/>
<path fill="#3C3C3D" d="M182.4,174.4v4.2c0,1.3,0.5,1.9,1.8,1.9c1.3,0,1.8-0.6,1.8-1.9v-4.2h0.9v3.9c0,1.9-0.7,2.8-2.7,2.8
	c-1.9,0-2.7-0.9-2.7-2.7v-4L182.4,174.4L182.4,174.4z"/>
<path fill="#3C3C3D" d="M189,177c0.4-0.6,0.9-0.9,1.6-0.9c1.2,0,1.6,0.6,1.6,1.7v3.2h-0.8v-2.8c0-0.8,0-1.4-1-1.4
	c-1,0-1.4,0.8-1.4,1.7v2.5h-0.8v-4.8h0.7L189,177L189,177z"/>
<path fill="#3C3C3D" d="M194.3,175.4h-0.8v-1h0.8V175.4z M194.3,181h-0.8v-4.8h0.8V181z"/>
<polygon fill="#3C3C3D" points="196.1,176.2 197.4,180.2 198.7,176.2 199.6,176.2 197.8,181 197,181 195.2,176.2 "/>
<path fill="#3C3C3D" d="M202.4,181.2c-1.4,0-2.3-0.9-2.3-2.5c0-1.6,0.9-2.6,2.2-2.6c1.6,0,2.2,1.3,2.2,2.6v0.1h-3.6l0,0.1
	c0,1,0.6,1.6,1.5,1.6c0.7,0,1.1-0.3,1.3-1h0.8C204.2,180.6,203.5,181.2,202.4,181.2 M202.3,176.7c-0.8,0-1.3,0.6-1.4,1.5h2.8
	C203.6,177.3,203.1,176.7,202.3,176.7"/>
<path fill="#3C3C3D" d="M208,176.9c-0.1,0-0.1,0-0.2,0c-1.3,0-1.5,1-1.5,2.1v2h-0.8v-4.8h0.8v1c0.3-0.8,0.9-1.1,1.8-1.1L208,176.9
	L208,176.9z"/>
<path fill="#3C3C3D" d="M211.4,177.6c-0.1-0.6-0.5-0.9-1.2-0.9c-0.6,0-1,0.3-1,0.7c0,0.5,0.6,0.6,1.3,0.8c0.8,0.2,1.9,0.4,1.9,1.5
	c0,0.9-0.8,1.5-2,1.5c-1.3,0-2-0.6-2.1-1.7h0.8c0,0.7,0.5,1,1.3,1c0.7,0,1.2-0.3,1.2-0.8c0-0.5-0.5-0.6-1.2-0.8
	c-0.8-0.2-1.9-0.3-1.9-1.4c0-0.9,0.7-1.4,1.8-1.4c1.1,0,1.9,0.5,1.9,1.5L211.4,177.6L211.4,177.6z"/>
<path fill="#3C3C3D" d="M214.2,175.4h-0.8v-1h0.8V175.4z M214.2,181h-0.8v-4.8h0.8V181z"/>
<path fill="#3C3C3D" d="M217.6,176.9h-1v2.8c0,0.4,0,0.7,0.5,0.7c0.2,0,0.3,0,0.4,0v0.7c-0.3,0-0.4,0-0.6,0c-1.2,0-1.1-0.6-1.1-1.6
	v-2.5h-0.8v-0.7h0.8v-1.4h0.8v1.4h1L217.6,176.9L217.6,176.9z"/>
<path fill="#3C3C3D" d="M220.5,181.6c-0.3,0.7-0.5,1.3-1.4,1.3c-0.2,0-0.4,0-0.6-0.1v-0.7c0.3,0.1,0.4,0.1,0.5,0.1
	c0.3,0,0.5-0.2,0.6-0.4l0.4-0.9l-1.9-4.8h0.9l1.4,3.8l1.3-3.8h0.8L220.5,181.6z"/>
<polygon fill="#2C2D7A" points="140.9,169 140.9,141.8 148,141.8 157.6,159.6 157.7,159.6 157.7,141.8 163.4,141.8 163.4,169 
	156.9,169 146.6,150.7 146.5,150.7 146.5,169 "/>
<path fill="#2C2D7A" d="M176.5,148.8c-6,0-9.9,4.1-9.9,10.5c0,6.4,4.2,10.1,9.6,10.1c5,0,9.8-3.3,9.8-10.5
	C185.9,152.9,182.1,148.8,176.5,148.8 M176.3,165c-2.6,0-4-2.5-4-5.9c0-2.9,1.1-5.9,4-5.9c2.8,0,3.9,3,3.9,5.9
	C180.2,162.6,178.7,165,176.3,165"/>
<path fill="#2C2D7A" d="M237.6,148.8c-6,0-9.9,4.1-9.9,10.5c0,6.4,4.2,10.1,9.6,10.1c5,0,9.8-3.3,9.8-10.5
	C247,152.9,243.2,148.8,237.6,148.8 M237.4,165c-2.6,0-4-2.5-4-5.9c0-2.9,1.1-5.9,4-5.9c2.8,0,3.9,3,3.9,5.9
	C241.3,162.6,239.8,165,237.4,165"/>
<path fill="#2C2D7A" d="M192.2,149.3c0,0,3.7,12.2,4,13.7h0.1c0.3-1.6,3.8-13.7,3.8-13.7h5.7l-6,19.7h-7.2l-6.3-19.7h6.1H192.2z"/>
<path fill="#2C2D7A" d="M216.1,152.9c-2.6,0-3.6,2.4-3.8,4l7.3-0.2C219.6,156.6,219.5,152.9,216.1,152.9 M212.4,161.1
	c0.2,2.5,2.7,3.7,5.6,3.7c2.1,0,4-0.5,5.6-1l0.8,4.1c-2,0.8-4.7,1.4-7.3,1.4c-6.7,0-10.5-3.9-10.5-10c0-5,3.1-10.5,9.9-10.5
	c6.4,0,8.8,5,8.8,9.8c0,1-0.2,1.8-0.2,1.8L212.4,161.1z"/>
<path fill="#E93425" d="M120.4,127.2l0.6,1.6l-0.3,1l-0.4,0.7l-0.5,0.7l-0.7,0.7l-0.7,0.6l-0.6,0.5l-0.6,0.4l-0.3,0.2l-0.4,0.2
	l-0.5,0.3l-0.4,0.2l-0.6,0.3l-0.6,0.3l-1,0.4l-1,0.3l-1.5,0.4l-1.3,0.4l-1.4,0.2l-1.1,0.2l-1.1,0l-0.9,0l-0.9-0.1l-0.9-0.1l-0.9-0.1
	l-1-0.4l-0.8-0.4l-0.6-0.6l-0.2-0.3c-0.8,1.5-1.1,2.9-1.5,4.7l-0.1,0.5c0.4,0,8.4,1.1,11,2.8c4.6-8,15-10.5,18.6-1.8
	C127.8,135.4,125,129.9,120.4,127.2"/>
<polygon fill="#3C3C3D" points="110.4,131.3 99.6,131.1 99.8,134.6 100.2,135.2 100.8,135.8 101.6,136.2 102.6,136.6 103.5,136.7 
	104.4,136.8 105.4,136.9 106.3,136.9 107.3,136.8 108.4,136.7 109.9,136.5 111.2,136.1 112.7,135.7 113.6,135.4 114.6,135 
	115.2,134.7 115.8,134.4 116.2,134.2 116.7,133.9 117,133.7 117.4,133.5 118,133.1 118.5,132.6 119.2,132 119.9,131.3 120.4,130.6 
	120.8,129.9 121.1,128.9 119.6,125.3 "/>
<path fill="#3C3C3D" d="M94.9,131l0.4,15.9l4.1-0.4C96.5,130,96.6,131,96.6,131L94.9,131z"/>
</svg>
