<svg xmlns="http://www.w3.org/2000/svg" viewBox="75.3 114.8 174.3 69.8"><path fill="#E93425" d="M128 141c0 .3 0 .7-.1 1.1-.3 2.8-1.2 5.4-2.4 7.6 4.9 4.6-1.2 13.6-5.2 17.4 3.8-2.3 8.5-7.6 10.4-13.2 2-5.9.7-11.7-2.7-12.9M97.5 165.4c-9.5-3.5-10-13-3.9-20.2l.1-4.2c-9.3 2.3-15.9 9.7-16.6 18.4-.7 8.7 6.6 14.6 16 14.5 0-.3.1-.6.2-.9.4-2.5 2-5.1 4.2-7.6"/><path fill="#E93425" d="M115.1 167.9c-5.8 6.4-15.2 12-22.1 6-.8 5.1 4.5 7.1 11.4 4.9 6-1.9 12.4-7 15.9-11.7-.2.1-.4.2-.7.3-1.7.8-3.3.9-4.5.5"/><path fill="#3C3C3D" d="M106 117.1l-18.5 12.6 22.2.3 18.3-12.1M144.8 176.3c-.1-1-.7-1.3-1.6-1.3-.9 0-1.5.4-1.5 1.1 0 .7.8.9 1.8 1.1 1.1.2 2.5.6 2.5 2 0 1.5-1.3 2-2.6 2-1.6 0-2.7-.7-2.7-2.3h.8c0 1.2.9 1.6 2 1.6.8 0 1.6-.3 1.6-1.2 0-.9-.8-1-1.9-1.3-1.1-.2-2.3-.4-2.3-1.8s1.2-1.9 2.4-1.9c1.4 0 2.4.7 2.4 2.1l-.9-.1zM151.3 178.6c0 1.6-.8 2.6-2.3 2.6-1.5 0-2.3-.9-2.3-2.5s.9-2.6 2.4-2.6c1.4 0 2.2.9 2.2 2.5m-3.8 0c0 1.2.6 1.9 1.5 1.9s1.5-.7 1.5-1.9c0-1.1-.6-1.9-1.5-1.9s-1.5.8-1.5 1.9M154.5 175.1h-.4c-.5 0-.6.1-.6.6v.5h.9v.7h-.9v4.1h-.8v-4.1h-.8v-.7h.8v-.6c0-.9.5-1.2 1.3-1.2h.5v.7zM157.3 176.9h-1v2.8c0 .4 0 .7.5.7h.4v.7h-.6c-1.2 0-1.1-.6-1.1-1.6V177h-.8v-.7h.8v-1.4h.8v1.4h1v.6zM158.7 176.2l1.1 4 .9-4h.9l1 4 1.1-4h.8L163 181h-.9l-.9-3.8-1 3.8h-.9l-1.5-4.8M169.6 181c-.2.1-.4.1-.5.1-.4 0-.7-.3-.7-.7-.5.5-1 .8-1.7.8-.9 0-1.5-.5-1.5-1.4 0-.9.6-1.4 1.7-1.5 1.1-.1 1.5-.1 1.5-.8 0-.5-.4-.8-1.1-.8-.7 0-1.1.3-1.2 1h-.8c0-1 .8-1.6 2-1.6.6 0 1.2.2 1.5.5.3.3.3.8.3 1.2v2.1c0 .4.1.5.3.5h.2v.6zm-2.3-2.2c-.6.1-1.4.1-1.4.9 0 .5.4.8 1 .8.7 0 1.5-.5 1.5-1.1v-.9c-.4.2-.8.3-1.1.3M173 176.9h-.2c-1.3 0-1.5 1-1.5 2.1v2h-.8v-4.8h.8v1c.3-.8.9-1.1 1.8-1.1v.8zM175.7 181.2c-1.4 0-2.3-.9-2.3-2.5s.9-2.6 2.2-2.6c1.6 0 2.2 1.3 2.2 2.6v.1h-3.6v.1c0 1 .6 1.6 1.5 1.6.7 0 1.1-.3 1.3-1h.8c-.3 1.1-1 1.7-2.1 1.7m-.1-4.5c-.8 0-1.3.6-1.4 1.5h2.8c-.1-.9-.6-1.5-1.4-1.5M182.4 174.4v4.2c0 1.3.5 1.9 1.8 1.9s1.8-.6 1.8-1.9v-4.2h.9v3.9c0 1.9-.7 2.8-2.7 2.8-1.9 0-2.7-.9-2.7-2.7v-4h.9zM189 177c.4-.6.9-.9 1.6-.9 1.2 0 1.6.6 1.6 1.7v3.2h-.8v-2.8c0-.8 0-1.4-1-1.4s-1.4.8-1.4 1.7v2.5h-.8v-4.8h.7l.1.8zM194.3 175.4h-.8v-1h.8v1zm0 5.6h-.8v-4.8h.8v4.8zM196.1 176.2l1.3 4 1.3-4h.9l-1.8 4.8h-.8l-1.8-4.8M202.4 181.2c-1.4 0-2.3-.9-2.3-2.5s.9-2.6 2.2-2.6c1.6 0 2.2 1.3 2.2 2.6v.1h-3.6v.1c0 1 .6 1.6 1.5 1.6.7 0 1.1-.3 1.3-1h.8c-.3 1.1-1 1.7-2.1 1.7m-.1-4.5c-.8 0-1.3.6-1.4 1.5h2.8c-.1-.9-.6-1.5-1.4-1.5M208 176.9h-.2c-1.3 0-1.5 1-1.5 2.1v2h-.8v-4.8h.8v1c.3-.8.9-1.1 1.8-1.1l-.1.8zM211.4 177.6c-.1-.6-.5-.9-1.2-.9-.6 0-1 .3-1 .7 0 .5.6.6 1.3.8.8.2 1.9.4 1.9 1.5 0 .9-.8 1.5-2 1.5-1.3 0-2-.6-2.1-1.7h.8c0 .7.5 1 1.3 1 .7 0 1.2-.3 1.2-.8s-.5-.6-1.2-.8c-.8-.2-1.9-.3-1.9-1.4 0-.9.7-1.4 1.8-1.4s1.9.5 1.9 1.5h-.8zM214.2 175.4h-.8v-1h.8v1zm0 5.6h-.8v-4.8h.8v4.8zM217.6 176.9h-1v2.8c0 .4 0 .7.5.7h.4v.7h-.6c-1.2 0-1.1-.6-1.1-1.6V177h-.8v-.7h.8v-1.4h.8v1.4h1v.6zM220.5 181.6c-.3.7-.5 1.3-1.4 1.3-.2 0-.4 0-.6-.1v-.7c.3.1.4.1.5.1.3 0 .5-.2.6-.4l.4-.9-1.9-4.8h.9l1.4 3.8 1.3-3.8h.8l-2 5.5z"/><path fill="#2C2D7A" d="M140.9 169v-27.2h7.1l9.6 17.8h.1v-17.8h5.7V169h-6.5l-10.3-18.3h-.1V169M176.5 148.8c-6 0-9.9 4.1-9.9 10.5s4.2 10.1 9.6 10.1c5 0 9.8-3.3 9.8-10.5-.1-6-3.9-10.1-9.5-10.1m-.2 16.2c-2.6 0-4-2.5-4-5.9 0-2.9 1.1-5.9 4-5.9 2.8 0 3.9 3 3.9 5.9 0 3.5-1.5 5.9-3.9 5.9M237.6 148.8c-6 0-9.9 4.1-9.9 10.5s4.2 10.1 9.6 10.1c5 0 9.8-3.3 9.8-10.5-.1-6-3.9-10.1-9.5-10.1m-.2 16.2c-2.6 0-4-2.5-4-5.9 0-2.9 1.1-5.9 4-5.9 2.8 0 3.9 3 3.9 5.9 0 3.5-1.5 5.9-3.9 5.9M192.2 149.3s3.7 12.2 4 13.7h.1c.3-1.6 3.8-13.7 3.8-13.7h5.7l-6 19.7h-7.2l-6.3-19.7h6.1-.2zM216.1 152.9c-2.6 0-3.6 2.4-3.8 4l7.3-.2c0-.1-.1-3.8-3.5-3.8m-3.7 8.2c.2 2.5 2.7 3.7 5.6 3.7 2.1 0 4-.5 5.6-1l.8 4.1c-2 .8-4.7 1.4-7.3 1.4-6.7 0-10.5-3.9-10.5-10 0-5 3.1-10.5 9.9-10.5 6.4 0 8.8 5 8.8 9.8 0 1-.2 1.8-.2 1.8l-12.7.7z"/><path fill="#E93425" d="M120.4 127.2l.6 1.6-.3 1-.4.7-.5.7-.7.7-.7.6-.6.5-.6.4-.3.2-.4.2-.5.3-.4.2-.6.3-.6.3-1 .4-1 .3-1.5.4-1.3.4-1.4.2-1.1.2h-2l-.9-.1-.9-.1-.9-.1-1-.4-.8-.4-.6-.6-.2-.3c-.8 1.5-1.1 2.9-1.5 4.7l-.1.5c.4 0 8.4 1.1 11 2.8 4.6-8 15-10.5 18.6-1.8 0-5.6-2.8-11.1-7.4-13.8"/><path fill="#3C3C3D" d="M110.4 131.3l-10.8-.2.2 3.5.4.6.6.6.8.4 1 .4.9.1.9.1 1 .1h.9l1-.1 1.1-.1 1.5-.2 1.3-.4 1.5-.4.9-.3 1-.4.6-.3.6-.3.4-.2.5-.3.3-.2.4-.2.6-.4.5-.5.7-.6.7-.7.5-.7.4-.7.3-1-1.5-3.6M94.9 131l.4 15.9 4.1-.4C96.5 130 96.6 131 96.6 131h-1.7z"/></svg>